<?xml version="1.0" encoding="utf-8"?>
<!-- Generator: Adobe Illustrator 24.1.2, SVG Export Plug-In . SVG Version: 6.00 Build 0)  -->
<svg version="1.1" id="圖層_1" xmlns="http://www.w3.org/2000/svg" xmlns:xlink="http://www.w3.org/1999/xlink" x="0px" y="0px"
	 viewBox="0 0 80 80" style="enable-background:new 0 0 80 80;" xml:space="preserve">
<style type="text/css">
	.st0{fill:#FFFFFF;}
</style>
<g>
	<path class="st0" d="M68.6,41.3c-2,0-3.6,1.6-3.6,3.6c0,13.8-11.3,25.1-25.1,25.1c-13.8,0-25.1-11.2-25.1-25.1
		c0-12.1,8.6-22.2,20-24.6l-2.5,2.1c-1.5,1.2-1.7,3.5-0.5,5c0.7,0.9,1.7,1.3,2.7,1.3c0.8,0,1.6-0.3,2.3-0.8l11.6-9.5
		c0.8-0.7,1.3-1.7,1.3-2.8s-0.5-2.1-1.3-2.8l-11.2-9c-1.5-1.2-3.8-1-5,0.5c-1.2,1.5-1,3.8,0.5,5l4.3,3.4C20.7,14.2,7.8,28,7.8,44.8
		C7.8,62.6,22.2,77,40,77s32.2-14.4,32.2-32.2C72.2,42.8,70.6,41.3,68.6,41.3z"/>
	<g>
		<path class="st0" d="M34.8,56.7h-3.9V42c-1.4,1.3-3.1,2.3-5,3v-3.5c1-0.3,2.1-1,3.3-1.9c1.2-0.9,2-2,2.5-3.3h3.2V56.7z"/>
		<path class="st0" d="M47.2,36.2c2,0,3.5,0.7,4.6,2.1c1.3,1.7,2,4.4,2,8.3c0,3.9-0.7,6.6-2,8.3c-1.1,1.4-2.6,2.1-4.6,2.1
			c-2,0-3.6-0.8-4.8-2.3s-1.8-4.2-1.8-8.1c0-3.8,0.7-6.6,2-8.3C43.7,36.9,45.2,36.2,47.2,36.2z M47.2,39.5c-0.5,0-0.9,0.2-1.3,0.5
			c-0.4,0.3-0.7,0.8-0.9,1.6c-0.3,1-0.4,2.7-0.4,5.1c0,2.4,0.1,4,0.4,4.9c0.2,0.9,0.5,1.5,0.9,1.8c0.4,0.3,0.8,0.4,1.3,0.4
			c0.5,0,0.9-0.2,1.3-0.5s0.7-0.8,0.9-1.6c0.3-1,0.4-2.7,0.4-5.1c0-2.4-0.1-4-0.4-4.9s-0.5-1.5-0.9-1.8
			C48.1,39.6,47.7,39.5,47.2,39.5z"/>
	</g>
</g>
</svg>
