<?xml version="1.0" encoding="utf-8"?>
<!-- Generator: Adobe Illustrator 24.1.2, SVG Export Plug-In . SVG Version: 6.00 Build 0)  -->
<svg version="1.1" id="圖層_1" xmlns="http://www.w3.org/2000/svg" xmlns:xlink="http://www.w3.org/1999/xlink" x="0px" y="0px"
	 viewBox="0 0 80 80" style="enable-background:new 0 0 80 80;" xml:space="preserve">
<style type="text/css">
	.st0{clip-path:url(#SVGID_2_);}
	.st1{clip-path:url(#SVGID_4_);fill:#FFFFFF;}
	.st2{clip-path:url(#SVGID_6_);}
	.st3{clip-path:url(#SVGID_8_);fill:#FFFFFF;}
	.st4{clip-path:url(#SVGID_10_);}
	.st5{clip-path:url(#SVGID_12_);fill:#FFFFFF;}
</style>
<g>
	<g>
		<defs>
			<path id="SVGID_1_" d="M34.9,10.8L20.4,21.7H7.1c-2.2,0-4,1.8-4,4v27.7c0,2.2,1.8,4,4,4h13.3l14.6,10.9c2.7,2,6.4,0.1,6.4-3.2V14
				C41.3,10.7,37.5,8.8,34.9,10.8z"/>
		</defs>
		<clipPath id="SVGID_2_">
			<use xlink:href="#SVGID_1_"  style="overflow:visible;"/>
		</clipPath>
		<g class="st0">
			<defs>
				<rect id="SVGID_3_" x="-590.8" y="-2344.9" width="4445.9" height="2500.8"/>
			</defs>
			<clipPath id="SVGID_4_">
				<use xlink:href="#SVGID_3_"  style="overflow:visible;"/>
			</clipPath>
			<rect x="-14.3" y="-7.4" class="st1" width="72.9" height="93.8"/>
		</g>
	</g>
	<g>
		<defs>
			<path id="SVGID_5_" d="M52.9,22c-1.5-1.6-4.1-1.6-5.6,0c-1.5,1.6-1.5,4.2,0,5.7c7.4,7.5,7.4,19.7,0,27.2c-1.5,1.6-1.5,4.2,0,5.7
				c0.8,0.8,1.8,1.2,2.8,1.2c1,0,2-0.4,2.8-1.2C63.4,49.9,63.4,32.6,52.9,22z"/>
		</defs>
		<clipPath id="SVGID_6_">
			<use xlink:href="#SVGID_5_"  style="overflow:visible;"/>
		</clipPath>
		<g class="st2">
			<defs>
				<rect id="SVGID_7_" x="-488.3" y="-1965.1" width="3738.1" height="2102.7"/>
			</defs>
			<clipPath id="SVGID_8_">
				<use xlink:href="#SVGID_7_"  style="overflow:visible;"/>
			</clipPath>
			<rect x="31.6" y="6.2" class="st3" width="43.8" height="70.1"/>
		</g>
	</g>
	<g>
		<defs>
			<path id="SVGID_9_" d="M62.3,16.3c-1.3,1.4-1.3,3.7,0,5c5.1,5.3,7.9,12.4,7.9,19.9s-2.8,14.6-7.9,19.9c-1.3,1.4-1.3,3.7,0,5
				c0.7,0.7,1.5,1.1,2.4,1.1c0.9,0,1.7-0.4,2.4-1c6.3-6.6,9.9-15.5,9.9-25S73.4,23,67,16.3C65.8,14.9,63.6,14.9,62.3,16.3z"/>
		</defs>
		<clipPath id="SVGID_10_">
			<use xlink:href="#SVGID_9_"  style="overflow:visible;"/>
		</clipPath>
		<g class="st4">
			<defs>
				<rect id="SVGID_11_" x="-424.9" y="-1744.8" width="3327.7" height="1871.8"/>
			</defs>
			<clipPath id="SVGID_12_">
				<use xlink:href="#SVGID_11_"  style="overflow:visible;"/>
			</clipPath>
			<rect x="48.3" y="2.3" class="st5" width="41.6" height="78"/>
		</g>
	</g>
</g>
</svg>
