<?xml version="1.0" encoding="utf-8"?>
<!-- Generator: Adobe Illustrator 24.1.2, SVG Export Plug-In . SVG Version: 6.00 Build 0)  -->
<svg version="1.1" id="圖層_1" xmlns="http://www.w3.org/2000/svg" xmlns:xlink="http://www.w3.org/1999/xlink" x="0px" y="0px"
	 viewBox="0 0 80 80" style="enable-background:new 0 0 80 80;" xml:space="preserve">
<style type="text/css">
	.st0{clip-path:url(#SVGID_2_);}
	.st1{clip-path:url(#SVGID_4_);enable-background:new    ;}
	.st2{clip-path:url(#SVGID_6_);}
	.st3{clip-path:url(#SVGID_8_);}
	.st4{clip-path:url(#SVGID_10_);fill:#FFFFFF;}
	.st5{clip-path:url(#SVGID_12_);fill:none;stroke:#FFFFFF;stroke-width:8.1104;stroke-miterlimit:10;}
</style>
<g>
	<defs>
		<path id="SVGID_1_" d="M65.8,40H14.4c-2.2,0-4.1,1.8-4.1,4.1c0,2.2,1.8,4.1,4.1,4.1h51.4c2.2,0,4.1-1.8,4.1-4.1
			C69.8,41.8,68,40,65.8,40z M65.8,53.5h-8.1c-2.2,0-4.1,1.8-4.1,4.1c0,2.1,1.6,3.8,3.7,4l0.4,0h8.1c2.2,0,4.1-1.8,4.1-4.1
			C69.8,55.3,68,53.5,65.8,53.5z M46.9,53.5H14.4c-2.2,0-4.1,1.8-4.1,4.1c0,2.1,1.6,3.8,3.7,4l0.4,0h32.4c2.2,0,4.1-1.8,4.1-4.1
			C50.9,55.3,49.1,53.5,46.9,53.5z M72.6,12.9c3,0,5.4,2.4,5.4,5.4v43.3c0,3-2.4,5.4-5.4,5.4H7.6c-3,0-5.4-2.4-5.4-5.4V18.3
			c0-3,2.4-5.4,5.4-5.4H72.6z"/>
	</defs>
	<clipPath id="SVGID_2_">
		<use xlink:href="#SVGID_1_"  style="overflow:visible;"/>
	</clipPath>
	<g class="st0">
		<defs>
			<rect id="SVGID_3_" x="-2776.9" y="-1817.3" width="3460.4" height="1946.5"/>
		</defs>
		<clipPath id="SVGID_4_">
			<use xlink:href="#SVGID_3_"  style="overflow:visible;"/>
		</clipPath>
		<g class="st1">
			<g>
				<defs>
					<rect id="SVGID_5_" x="-41" y="-27.6" width="159.5" height="137.9"/>
				</defs>
				<clipPath id="SVGID_6_">
					<use xlink:href="#SVGID_5_"  style="overflow:visible;"/>
				</clipPath>
				<g class="st2">
					<defs>
						<path id="SVGID_7_" d="M65.8,40H14.4c-2.2,0-4.1,1.8-4.1,4.1c0,2.2,1.8,4.1,4.1,4.1h51.4c2.2,0,4.1-1.8,4.1-4.1
							C69.8,41.8,68,40,65.8,40z M65.8,53.5h-8.1c-2.2,0-4.1,1.8-4.1,4.1c0,2.1,1.6,3.8,3.7,4l0.4,0h8.1c2.2,0,4.1-1.8,4.1-4.1
							C69.8,55.3,68,53.5,65.8,53.5z M46.9,53.5H14.4c-2.2,0-4.1,1.8-4.1,4.1c0,2.1,1.6,3.8,3.7,4l0.4,0h32.4c2.2,0,4.1-1.8,4.1-4.1
							C50.9,55.3,49.1,53.5,46.9,53.5z M72.6,12.9c3,0,5.4,2.4,5.4,5.4v43.3c0,3-2.4,5.4-5.4,5.4H7.6c-3,0-5.4-2.4-5.4-5.4V18.3
							c0-3,2.4-5.4,5.4-5.4H72.6z"/>
					</defs>
					<clipPath id="SVGID_8_">
						<use xlink:href="#SVGID_7_"  style="overflow:visible;"/>
					</clipPath>
					<g class="st3">
						<defs>
							<rect id="SVGID_9_" x="2.2" y="12.9" width="75.7" height="54.1"/>
						</defs>
						<clipPath id="SVGID_10_">
							<use xlink:href="#SVGID_9_"  style="overflow:visible;"/>
						</clipPath>
						<path class="st4" d="M65.8,40H14.4c-2.2,0-4.1,1.8-4.1,4.1c0,2.2,1.8,4.1,4.1,4.1h51.4c2.2,0,4.1-1.8,4.1-4.1
							C69.8,41.8,68,40,65.8,40z M65.8,53.5h-8.1c-2.2,0-4.1,1.8-4.1,4.1c0,2.1,1.6,3.8,3.7,4l0.4,0h8.1c2.2,0,4.1-1.8,4.1-4.1
							C69.8,55.3,68,53.5,65.8,53.5z M46.9,53.5H14.4c-2.2,0-4.1,1.8-4.1,4.1c0,2.1,1.6,3.8,3.7,4l0.4,0h32.4c2.2,0,4.1-1.8,4.1-4.1
							C50.9,55.3,49.1,53.5,46.9,53.5z M72.6,12.9c3,0,5.4,2.4,5.4,5.4v43.3c0,3-2.4,5.4-5.4,5.4H7.6c-3,0-5.4-2.4-5.4-5.4V18.3
							c0-3,2.4-5.4,5.4-5.4H72.6z"/>
					</g>
				</g>
				<g class="st2">
					<defs>
						<rect id="SVGID_11_" x="2.2" y="12.9" width="75.7" height="54.1"/>
					</defs>
					<clipPath id="SVGID_12_">
						<use xlink:href="#SVGID_11_"  style="overflow:visible;"/>
					</clipPath>
					<path class="st5" d="M65.8,40H14.4c-2.2,0-4.1,1.8-4.1,4.1s1.8,4.1,4.1,4.1h51.4c2.2,0,4.1-1.8,4.1-4.1S68,40,65.8,40z
						 M65.8,53.5h-8.1c-2.2,0-4.1,1.8-4.1,4.1c0,2.1,1.6,3.8,3.7,4l0.4,0h8.1c2.2,0,4.1-1.8,4.1-4.1C69.8,55.3,68,53.5,65.8,53.5z
						 M46.9,53.5H14.4c-2.2,0-4.1,1.8-4.1,4.1c0,2.1,1.6,3.8,3.7,4l0.4,0h32.4c2.2,0,4.1-1.8,4.1-4.1C50.9,55.3,49.1,53.5,46.9,53.5
						z M72.6,12.9c3,0,5.4,2.4,5.4,5.4v43.3c0,3-2.4,5.4-5.4,5.4H7.6c-3,0-5.4-2.4-5.4-5.4V18.3c0-3,2.4-5.4,5.4-5.4H72.6z"/>
				</g>
			</g>
		</g>
	</g>
</g>
</svg>
