<?xml version="1.0" encoding="utf-8"?>
<!-- Generator: Adobe Illustrator 24.1.2, SVG Export Plug-In . SVG Version: 6.00 Build 0)  -->
<svg version="1.1" id="圖層_1" xmlns="http://www.w3.org/2000/svg" xmlns:xlink="http://www.w3.org/1999/xlink" x="0px" y="0px"
	 viewBox="0 0 80 80" style="enable-background:new 0 0 80 80;" xml:space="preserve">
<style type="text/css">
	.st0{fill:#FFFFFF;}
</style>
<g>
	<path class="st0" d="M24.8,77.5H9.7c-2.4,0-4.4-1.9-4.4-4.4v-66c0-2.4,1.9-4.4,4.4-4.4h15.2c2.4,0,4.4,1.9,4.4,4.4v66
		C29.2,75.5,27.3,77.5,24.8,77.5z"/>
	<path class="st0" d="M69.6,77.5H54.5c-2.4,0-4.4-1.9-4.4-4.4v-66c0-2.4,1.9-4.4,4.4-4.4h15.2c2.4,0,4.4,1.9,4.4,4.4v66
		C74,75.5,72.1,77.5,69.6,77.5z"/>
</g>
</svg>
